<svg class="m-r" viewBox="0 0 40 50">
                <path
                  d="M21.7 44c2.1-1.8 4.2-3.9 6.1-6.1 5.5-6.1 8.7-12.2 8.7-17.7 0-9.2-7.4-16.6-16.6-16.6S3.4 11.1 3.4 20.2c0 5.5 3.2 11.6 8.7 17.7 1.9 2.2 4 4.2 6.1 6.1.6.5 1.2 1 1.7 1.5l1.8-1.5zm-.7 5l-1 .8-1-.8c-.2-.1-.4-.3-.8-.7-.6-.5-1.4-1.1-2.1-1.8-2.2-1.9-4.4-4.1-6.4-6.4-6-6.7-9.6-13.5-9.6-20 0-11 9-20 20-20s20 9 20 20c0 6.5-3.6 13.3-9.6 20-2.1 2.3-4.2 4.4-6.4 6.4-.8.7-1.5 1.3-2.1 1.8-.5.4-.8.6-1 .7zm7.6-28.8c0 4.7-3.8 8.6-8.6 8.6s-8.6-3.8-8.6-8.6c0-4.7 3.8-8.6 8.6-8.6s8.6 3.9 8.6 8.6zm-3.5 0c0-2.8-2.3-5.1-5.1-5.1s-5.1 2.3-5.1 5.1 2.3 5.1 5.1 5.1 5.1-2.2 5.1-5.1z" />
              </svg>