<svg width="100%" height="100%" viewBox="0 0 1066 771" version="1.1" xmlns="http://www.w3.org/2000/svg"
            xmlns:xlink="http://www.w3.org/1999/xlink">
            <!-- Generator: Sketch 59.1 (86144) - https://sketch.com -->
            <title>Black-LEADWITHSPEED</title>
            <desc>Created with Sketch.</desc>
            <g id="手机专题页" stroke="none" stroke-width="1" fill="none" fill-rule="evenodd">
              <path
                d="M84.3184,236.6992 L242.7184,236.6992 L242.7184,198.3664 L128.0368,198.3664 L128.0368,1 L84.3184,1 L84.3184,236.6992 Z M449.587216,198.3664 L318.115216,198.3664 L318.115216,131.8384 L431.846416,131.8384 L431.846416,96.6736 L318.115216,96.6736 L318.115216,38.3824 L446.736016,38.3824 L446.736016,1 L274.396816,1 L274.396816,236.6992 L449.587216,236.6992 L449.587216,198.3664 Z M544.308832,148.312 L562.683232,93.8224 L563.368153,91.76764 C570.754504,69.307529 578.206432,37.1152 578.206432,37.1152 L578.840032,37.1152 L579.573922,40.6534651 C581.38872,49.1813834 586.471744,71.798464 593.729632,93.8224 L611.787232,148.312 L544.308832,148.312 Z M641.249632,236.6992 L688.136032,236.6992 L602.283232,1 L555.396832,1 L469.860832,236.6992 L514.212832,236.6992 L533.220832,180.6256 L622.558432,180.6256 L641.249632,236.6992 Z M715.379248,236.6992 L805.667248,236.6992 C876.947248,236.6992 915.280048,190.4464 915.280048,120.1168 C915.280048,48.52 876.313648,1 808.201648,1 L715.379248,1 L715.379248,236.6992 Z M759.414448,199.3168 L759.414448,38.3824 L804.083248,38.3824 C850.336048,38.3824 870.294448,71.0128 870.294448,120.1168 C870.294448,169.5376 849.385648,199.3168 802.816048,199.3168 L759.414448,199.3168 Z M138.9664,500.4992 L182.6848,500.4992 L214.3648,377.264 C220.0672,352.2368 226.4032,306.6176 226.4032,306.6176 L227.0368,306.6176 L227.713485,311.562214 C229.457152,324.0416 234.3232,357.24224 239.392,377.264 L269.488,500.4992 L312.256,500.4992 L377.5168,264.8 L332.5312,264.8 L304.6528,378.5312 L304.2168,380.283953 C297.115494,409.279428 291.0304,455.8304 291.0304,455.8304 L290.3968,455.8304 L289.542201,449.871261 C287.483539,435.757572 282.030112,399.78848 276.7744,377.264 L248.2624,264.8 L205.1776,264.8 L176.3488,377.5808 C169.696,405.776 162.0928,455.8304 162.0928,455.8304 L161.4592,455.8304 L161.061157,452.408595 C159.695258,440.915963 154.958464,403.064192 149.104,378.848 L121.2256,264.8 L76.24,264.8 L138.9664,500.4992 Z M405.710416,500.4992 L449.745616,500.4992 L449.745616,264.8 L405.710416,264.8 L405.710416,500.4992 Z M672.771232,302.4992 L672.771232,264.8 L481.424032,264.8 L481.424032,302.4992 L554.921632,302.4992 L554.921632,500.4992 L598.956832,500.4992 L598.956832,302.4992 L672.771232,302.4992 Z M851.761648,500.4992 L895.796848,500.4992 L895.796848,264.8 L851.761648,264.8 L851.761648,359.5232 L747.534448,359.5232 L747.534448,264.8 L703.816048,264.8 L703.816048,500.4992 L747.534448,500.4992 L747.534448,395.9552 L851.761648,395.9552 L851.761648,500.4992 Z M103.96,769.6848 C156.232,769.6848 195.5152,743.3904 195.5152,696.504 C195.5152,645.4992 155.2816,632.5104 111.5632,623.0064 L107.257336,622.101984 C73.3429274,614.921157 52.3216,608.826432 52.3216,587.8416 C52.3216,569.1504 69.7456,558.0624 96.04,558.0624 C123.9184,558.0624 141.3424,571.0512 144.8272,594.1776 L187.5952,594.1776 C183.16,550.776 151.48,524.4816 96.6736,524.4816 C46.3024,524.4816 9.5536,546.9744 9.5536,591.6432 C9.5536,638.8464 46.3024,650.568 90.3376,660.3888 L94.7559716,661.402986 C129.557947,669.430019 151.1632,675.65856 151.1632,699.9888 C151.1632,723.432 129.9376,734.52 104.2768,734.52 C68.1616,734.52 48.2032,719.3136 45.0352,688.9008 L1,688.9008 C2.9008,737.0544 39.3328,769.6848 103.96,769.6848 Z M274.713616,566.2992 L327.936016,566.2992 C353.596816,566.2992 368.169616,579.288 368.169616,603.048 C368.169616,625.8576 354.230416,640.4304 327.302416,640.4304 L274.713616,640.4304 L274.713616,566.2992 Z M334.272016,675.5952 C384.009616,675.5952 412.204816,646.7664 412.204816,602.4144 C412.204816,581.754514 405.090869,564.806253 392.696694,551.263996 L392.246416,550.776 C379.257616,536.52 358.982416,528.6 332.371216,528.6 L230.361616,528.6 L230.361616,764.2992 L274.713616,764.2992 L274.713616,675.5952 L334.272016,675.5952 Z M617.172832,725.9664 L485.700832,725.9664 L485.700832,659.4384 L599.432032,659.4384 L599.432032,624.2736 L485.700832,624.2736 L485.700832,565.9824 L614.321632,565.9824 L614.321632,528.6 L441.982432,528.6 L441.982432,764.2992 L617.172832,764.2992 L617.172832,725.9664 Z M828.793648,725.9664 L697.321648,725.9664 L697.321648,659.4384 L811.052848,659.4384 L811.052848,624.2736 L697.321648,624.2736 L697.321648,565.9824 L825.942448,565.9824 L825.942448,528.6 L653.603248,528.6 L653.603248,764.2992 L828.793648,764.2992 L828.793648,725.9664 Z M865.540864,764.2992 L955.828864,764.2992 C1027.10886,764.2992 1065.44166,718.0464 1065.44166,647.7168 C1065.44166,576.12 1026.47526,528.6 958.363264,528.6 L865.540864,528.6 L865.540864,764.2992 Z M909.576064,726.9168 L909.576064,565.9824 L954.244864,565.9824 C1000.49766,565.9824 1020.45606,598.6128 1020.45606,647.7168 C1020.45606,697.1376 999.547264,726.9168 952.977664,726.9168 L909.576064,726.9168 Z"
                id="LEADWITHSPEED" stroke="#000000" fill-rule="nonzero" class="svg-elem-1"></path>
            </g>
          </svg>